<?xml version="1.0" encoding="UTF-8" standalone="no"?>
<!-- Created with Inkscape (http://www.inkscape.org/) -->

<svg
   width="46.171192mm"
   height="35.456364mm"
   viewBox="0 0 46.171192 35.456364"
   version="1.1"
   id="svg1"
   inkscape:version="1.3 (0e150ed6c4, 2023-07-21)"
   sodipodi:docname="logos-for-mywebsite.svg"
   xmlns:inkscape="http://www.inkscape.org/namespaces/inkscape"
   xmlns:sodipodi="http://sodipodi.sourceforge.net/DTD/sodipodi-0.dtd"
   xmlns="http://www.w3.org/2000/svg"
   xmlns:svg="http://www.w3.org/2000/svg">
  <sodipodi:namedview
     id="namedview1"
     pagecolor="#ffffff"
     bordercolor="#cccccc"
     borderopacity="1"
     inkscape:showpageshadow="0"
     inkscape:pageopacity="1"
     inkscape:pagecheckerboard="0"
     inkscape:deskcolor="#d1d1d1"
     inkscape:document-units="mm"
     inkscape:zoom="0.33953129"
     inkscape:cx="316.61294"
     inkscape:cy="661.20563"
     inkscape:window-width="1366"
     inkscape:window-height="705"
     inkscape:window-x="-8"
     inkscape:window-y="-8"
     inkscape:window-maximized="1"
     inkscape:current-layer="layer1" />
  <defs
     id="defs1" />
  <g
     inkscape:label="Layer 1"
     inkscape:groupmode="layer"
     id="layer1"
     transform="translate(-54.64565,-162.15057)">
    <g
       id="g17">
      <rect
         style="fill:none;stroke:none;stroke-width:0.264583;stroke-linecap:round;stroke-miterlimit:14.4"
         id="rect9"
         width="46.171188"
         height="35.456356"
         x="54.645653"
         y="162.15057"
         inkscape:export-filename="expand.svg"
         inkscape:export-xdpi="17.90934"
         inkscape:export-ydpi="17.90934" />
      <g
         id="g14"
         transform="matrix(0.91356998,0,0,0.91356998,6.7796708,15.608273)">
        <path
           id="path11"
           style="fill:#000000;stroke:#000000;stroke-width:1;stroke-linecap:round;stroke-miterlimit:14.4;stroke-dasharray:none;stroke-opacity:1"
           d="m 72.327357,166.78747 a 7.5210195,7.5210195 0 0 0 -7.520993,7.521 7.5210195,7.5210195 0 0 0 7.520993,7.52099 7.5210195,7.5210195 0 0 0 7.520994,-7.52099 7.5210195,7.5210195 0 0 0 -7.520994,-7.521 z m 0,1.15711 a 6.3639395,6.3639395 0 0 1 6.363884,6.36389 6.3639395,6.3639395 0 0 1 -6.363884,6.36432 6.3639395,6.3639395 0 0 1 -6.363884,-6.36432 6.3639395,6.3639395 0 0 1 6.363884,-6.36389 z" />
        <path
           id="path12"
           style="fill:#000000;fill-opacity:1;stroke:#000000;stroke-width:2.38125;stroke-linecap:round;stroke-miterlimit:14.4;stroke-dasharray:none;stroke-opacity:1"
           d="m 77.118466,179.43237 c 0,0 13.105942,13.10594 13.06144,13.06144 z"
           sodipodi:nodetypes="csc" />
      </g>
    </g>
  </g>
</svg>
